%TF.GenerationSoftware,KiCad,Pcbnew,10.0.0*%
%TF.CreationDate,2026-06-24T16:10:11+02:00*%
%TF.ProjectId,test plane + arduino,74657374-2070-46c6-916e-65202b206172,rev?*%
%TF.SameCoordinates,Original*%
%TF.FileFunction,Legend,Top*%
%TF.FilePolarity,Positive*%
%FSLAX46Y46*%
G04 Gerber Fmt 4.6, Leading zero omitted, Abs format (unit mm)*
G04 Created by KiCad (PCBNEW 10.0.0) date 2026-06-24 16:10:11*
%MOMM*%
%LPD*%
G01*
G04 APERTURE LIST*
%ADD10C,0.150000*%
%ADD11C,0.120000*%
%ADD12C,0.100000*%
%TA.AperFunction,Profile*%
%ADD13C,0.050000*%
%TD*%
G04 APERTURE END LIST*
D10*
X101265238Y-117231009D02*
X101408095Y-117278628D01*
X101408095Y-117278628D02*
X101455714Y-117326247D01*
X101455714Y-117326247D02*
X101503333Y-117421485D01*
X101503333Y-117421485D02*
X101503333Y-117564342D01*
X101503333Y-117564342D02*
X101455714Y-117659580D01*
X101455714Y-117659580D02*
X101408095Y-117707200D01*
X101408095Y-117707200D02*
X101312857Y-117754819D01*
X101312857Y-117754819D02*
X100931905Y-117754819D01*
X100931905Y-117754819D02*
X100931905Y-116754819D01*
X100931905Y-116754819D02*
X101265238Y-116754819D01*
X101265238Y-116754819D02*
X101360476Y-116802438D01*
X101360476Y-116802438D02*
X101408095Y-116850057D01*
X101408095Y-116850057D02*
X101455714Y-116945295D01*
X101455714Y-116945295D02*
X101455714Y-117040533D01*
X101455714Y-117040533D02*
X101408095Y-117135771D01*
X101408095Y-117135771D02*
X101360476Y-117183390D01*
X101360476Y-117183390D02*
X101265238Y-117231009D01*
X101265238Y-117231009D02*
X100931905Y-117231009D01*
X101884286Y-116850057D02*
X101931905Y-116802438D01*
X101931905Y-116802438D02*
X102027143Y-116754819D01*
X102027143Y-116754819D02*
X102265238Y-116754819D01*
X102265238Y-116754819D02*
X102360476Y-116802438D01*
X102360476Y-116802438D02*
X102408095Y-116850057D01*
X102408095Y-116850057D02*
X102455714Y-116945295D01*
X102455714Y-116945295D02*
X102455714Y-117040533D01*
X102455714Y-117040533D02*
X102408095Y-117183390D01*
X102408095Y-117183390D02*
X101836667Y-117754819D01*
X101836667Y-117754819D02*
X102455714Y-117754819D01*
X105261905Y-57954819D02*
X105261905Y-56954819D01*
X105261905Y-56954819D02*
X105500000Y-56954819D01*
X105500000Y-56954819D02*
X105642857Y-57002438D01*
X105642857Y-57002438D02*
X105738095Y-57097676D01*
X105738095Y-57097676D02*
X105785714Y-57192914D01*
X105785714Y-57192914D02*
X105833333Y-57383390D01*
X105833333Y-57383390D02*
X105833333Y-57526247D01*
X105833333Y-57526247D02*
X105785714Y-57716723D01*
X105785714Y-57716723D02*
X105738095Y-57811961D01*
X105738095Y-57811961D02*
X105642857Y-57907200D01*
X105642857Y-57907200D02*
X105500000Y-57954819D01*
X105500000Y-57954819D02*
X105261905Y-57954819D01*
X106214286Y-57050057D02*
X106261905Y-57002438D01*
X106261905Y-57002438D02*
X106357143Y-56954819D01*
X106357143Y-56954819D02*
X106595238Y-56954819D01*
X106595238Y-56954819D02*
X106690476Y-57002438D01*
X106690476Y-57002438D02*
X106738095Y-57050057D01*
X106738095Y-57050057D02*
X106785714Y-57145295D01*
X106785714Y-57145295D02*
X106785714Y-57240533D01*
X106785714Y-57240533D02*
X106738095Y-57383390D01*
X106738095Y-57383390D02*
X106166667Y-57954819D01*
X106166667Y-57954819D02*
X106785714Y-57954819D01*
X106738095Y-63954819D02*
X106738095Y-62954819D01*
X107309523Y-63954819D02*
X106880952Y-63383390D01*
X107309523Y-62954819D02*
X106738095Y-63526247D01*
X113454819Y-137666666D02*
X112978628Y-137999999D01*
X113454819Y-138238094D02*
X112454819Y-138238094D01*
X112454819Y-138238094D02*
X112454819Y-137857142D01*
X112454819Y-137857142D02*
X112502438Y-137761904D01*
X112502438Y-137761904D02*
X112550057Y-137714285D01*
X112550057Y-137714285D02*
X112645295Y-137666666D01*
X112645295Y-137666666D02*
X112788152Y-137666666D01*
X112788152Y-137666666D02*
X112883390Y-137714285D01*
X112883390Y-137714285D02*
X112931009Y-137761904D01*
X112931009Y-137761904D02*
X112978628Y-137857142D01*
X112978628Y-137857142D02*
X112978628Y-138238094D01*
X113454819Y-137190475D02*
X113454819Y-136999999D01*
X113454819Y-136999999D02*
X113407200Y-136904761D01*
X113407200Y-136904761D02*
X113359580Y-136857142D01*
X113359580Y-136857142D02*
X113216723Y-136761904D01*
X113216723Y-136761904D02*
X113026247Y-136714285D01*
X113026247Y-136714285D02*
X112645295Y-136714285D01*
X112645295Y-136714285D02*
X112550057Y-136761904D01*
X112550057Y-136761904D02*
X112502438Y-136809523D01*
X112502438Y-136809523D02*
X112454819Y-136904761D01*
X112454819Y-136904761D02*
X112454819Y-137095237D01*
X112454819Y-137095237D02*
X112502438Y-137190475D01*
X112502438Y-137190475D02*
X112550057Y-137238094D01*
X112550057Y-137238094D02*
X112645295Y-137285713D01*
X112645295Y-137285713D02*
X112883390Y-137285713D01*
X112883390Y-137285713D02*
X112978628Y-137238094D01*
X112978628Y-137238094D02*
X113026247Y-137190475D01*
X113026247Y-137190475D02*
X113073866Y-137095237D01*
X113073866Y-137095237D02*
X113073866Y-136904761D01*
X113073866Y-136904761D02*
X113026247Y-136809523D01*
X113026247Y-136809523D02*
X112978628Y-136761904D01*
X112978628Y-136761904D02*
X112883390Y-136714285D01*
X118190476Y-96574819D02*
X118190476Y-95574819D01*
X118190476Y-95574819D02*
X118523809Y-96289104D01*
X118523809Y-96289104D02*
X118857142Y-95574819D01*
X118857142Y-95574819D02*
X118857142Y-96574819D01*
X119857142Y-96574819D02*
X119285714Y-96574819D01*
X119571428Y-96574819D02*
X119571428Y-95574819D01*
X119571428Y-95574819D02*
X119476190Y-95717676D01*
X119476190Y-95717676D02*
X119380952Y-95812914D01*
X119380952Y-95812914D02*
X119285714Y-95860533D01*
X101166667Y-65907200D02*
X101309524Y-65954819D01*
X101309524Y-65954819D02*
X101547619Y-65954819D01*
X101547619Y-65954819D02*
X101642857Y-65907200D01*
X101642857Y-65907200D02*
X101690476Y-65859580D01*
X101690476Y-65859580D02*
X101738095Y-65764342D01*
X101738095Y-65764342D02*
X101738095Y-65669104D01*
X101738095Y-65669104D02*
X101690476Y-65573866D01*
X101690476Y-65573866D02*
X101642857Y-65526247D01*
X101642857Y-65526247D02*
X101547619Y-65478628D01*
X101547619Y-65478628D02*
X101357143Y-65431009D01*
X101357143Y-65431009D02*
X101261905Y-65383390D01*
X101261905Y-65383390D02*
X101214286Y-65335771D01*
X101214286Y-65335771D02*
X101166667Y-65240533D01*
X101166667Y-65240533D02*
X101166667Y-65145295D01*
X101166667Y-65145295D02*
X101214286Y-65050057D01*
X101214286Y-65050057D02*
X101261905Y-65002438D01*
X101261905Y-65002438D02*
X101357143Y-64954819D01*
X101357143Y-64954819D02*
X101595238Y-64954819D01*
X101595238Y-64954819D02*
X101738095Y-65002438D01*
X102071429Y-64954819D02*
X102309524Y-65954819D01*
X102309524Y-65954819D02*
X102500000Y-65240533D01*
X102500000Y-65240533D02*
X102690476Y-65954819D01*
X102690476Y-65954819D02*
X102928572Y-64954819D01*
X103833333Y-65954819D02*
X103261905Y-65954819D01*
X103547619Y-65954819D02*
X103547619Y-64954819D01*
X103547619Y-64954819D02*
X103452381Y-65097676D01*
X103452381Y-65097676D02*
X103357143Y-65192914D01*
X103357143Y-65192914D02*
X103261905Y-65240533D01*
X107833333Y-98359580D02*
X107785714Y-98407200D01*
X107785714Y-98407200D02*
X107642857Y-98454819D01*
X107642857Y-98454819D02*
X107547619Y-98454819D01*
X107547619Y-98454819D02*
X107404762Y-98407200D01*
X107404762Y-98407200D02*
X107309524Y-98311961D01*
X107309524Y-98311961D02*
X107261905Y-98216723D01*
X107261905Y-98216723D02*
X107214286Y-98026247D01*
X107214286Y-98026247D02*
X107214286Y-97883390D01*
X107214286Y-97883390D02*
X107261905Y-97692914D01*
X107261905Y-97692914D02*
X107309524Y-97597676D01*
X107309524Y-97597676D02*
X107404762Y-97502438D01*
X107404762Y-97502438D02*
X107547619Y-97454819D01*
X107547619Y-97454819D02*
X107642857Y-97454819D01*
X107642857Y-97454819D02*
X107785714Y-97502438D01*
X107785714Y-97502438D02*
X107833333Y-97550057D01*
X108785714Y-98454819D02*
X108214286Y-98454819D01*
X108500000Y-98454819D02*
X108500000Y-97454819D01*
X108500000Y-97454819D02*
X108404762Y-97597676D01*
X108404762Y-97597676D02*
X108309524Y-97692914D01*
X108309524Y-97692914D02*
X108214286Y-97740533D01*
X108643333Y-108954819D02*
X108310000Y-108478628D01*
X108071905Y-108954819D02*
X108071905Y-107954819D01*
X108071905Y-107954819D02*
X108452857Y-107954819D01*
X108452857Y-107954819D02*
X108548095Y-108002438D01*
X108548095Y-108002438D02*
X108595714Y-108050057D01*
X108595714Y-108050057D02*
X108643333Y-108145295D01*
X108643333Y-108145295D02*
X108643333Y-108288152D01*
X108643333Y-108288152D02*
X108595714Y-108383390D01*
X108595714Y-108383390D02*
X108548095Y-108431009D01*
X108548095Y-108431009D02*
X108452857Y-108478628D01*
X108452857Y-108478628D02*
X108071905Y-108478628D01*
X109024286Y-108050057D02*
X109071905Y-108002438D01*
X109071905Y-108002438D02*
X109167143Y-107954819D01*
X109167143Y-107954819D02*
X109405238Y-107954819D01*
X109405238Y-107954819D02*
X109500476Y-108002438D01*
X109500476Y-108002438D02*
X109548095Y-108050057D01*
X109548095Y-108050057D02*
X109595714Y-108145295D01*
X109595714Y-108145295D02*
X109595714Y-108240533D01*
X109595714Y-108240533D02*
X109548095Y-108383390D01*
X109548095Y-108383390D02*
X108976667Y-108954819D01*
X108976667Y-108954819D02*
X109595714Y-108954819D01*
X103880952Y-142454819D02*
X103404762Y-142454819D01*
X103404762Y-142454819D02*
X103404762Y-141454819D01*
X104214286Y-141931009D02*
X104547619Y-141931009D01*
X104690476Y-142454819D02*
X104214286Y-142454819D01*
X104214286Y-142454819D02*
X104214286Y-141454819D01*
X104214286Y-141454819D02*
X104690476Y-141454819D01*
X105119048Y-142454819D02*
X105119048Y-141454819D01*
X105119048Y-141454819D02*
X105357143Y-141454819D01*
X105357143Y-141454819D02*
X105500000Y-141502438D01*
X105500000Y-141502438D02*
X105595238Y-141597676D01*
X105595238Y-141597676D02*
X105642857Y-141692914D01*
X105642857Y-141692914D02*
X105690476Y-141883390D01*
X105690476Y-141883390D02*
X105690476Y-142026247D01*
X105690476Y-142026247D02*
X105642857Y-142216723D01*
X105642857Y-142216723D02*
X105595238Y-142311961D01*
X105595238Y-142311961D02*
X105500000Y-142407200D01*
X105500000Y-142407200D02*
X105357143Y-142454819D01*
X105357143Y-142454819D02*
X105119048Y-142454819D01*
X106642857Y-142454819D02*
X106071429Y-142454819D01*
X106357143Y-142454819D02*
X106357143Y-141454819D01*
X106357143Y-141454819D02*
X106261905Y-141597676D01*
X106261905Y-141597676D02*
X106166667Y-141692914D01*
X106166667Y-141692914D02*
X106071429Y-141740533D01*
X101265238Y-135231009D02*
X101408095Y-135278628D01*
X101408095Y-135278628D02*
X101455714Y-135326247D01*
X101455714Y-135326247D02*
X101503333Y-135421485D01*
X101503333Y-135421485D02*
X101503333Y-135564342D01*
X101503333Y-135564342D02*
X101455714Y-135659580D01*
X101455714Y-135659580D02*
X101408095Y-135707200D01*
X101408095Y-135707200D02*
X101312857Y-135754819D01*
X101312857Y-135754819D02*
X100931905Y-135754819D01*
X100931905Y-135754819D02*
X100931905Y-134754819D01*
X100931905Y-134754819D02*
X101265238Y-134754819D01*
X101265238Y-134754819D02*
X101360476Y-134802438D01*
X101360476Y-134802438D02*
X101408095Y-134850057D01*
X101408095Y-134850057D02*
X101455714Y-134945295D01*
X101455714Y-134945295D02*
X101455714Y-135040533D01*
X101455714Y-135040533D02*
X101408095Y-135135771D01*
X101408095Y-135135771D02*
X101360476Y-135183390D01*
X101360476Y-135183390D02*
X101265238Y-135231009D01*
X101265238Y-135231009D02*
X100931905Y-135231009D01*
X102408095Y-134754819D02*
X101931905Y-134754819D01*
X101931905Y-134754819D02*
X101884286Y-135231009D01*
X101884286Y-135231009D02*
X101931905Y-135183390D01*
X101931905Y-135183390D02*
X102027143Y-135135771D01*
X102027143Y-135135771D02*
X102265238Y-135135771D01*
X102265238Y-135135771D02*
X102360476Y-135183390D01*
X102360476Y-135183390D02*
X102408095Y-135231009D01*
X102408095Y-135231009D02*
X102455714Y-135326247D01*
X102455714Y-135326247D02*
X102455714Y-135564342D01*
X102455714Y-135564342D02*
X102408095Y-135659580D01*
X102408095Y-135659580D02*
X102360476Y-135707200D01*
X102360476Y-135707200D02*
X102265238Y-135754819D01*
X102265238Y-135754819D02*
X102027143Y-135754819D01*
X102027143Y-135754819D02*
X101931905Y-135707200D01*
X101931905Y-135707200D02*
X101884286Y-135659580D01*
X107619047Y-86931009D02*
X107761904Y-86978628D01*
X107761904Y-86978628D02*
X107809523Y-87026247D01*
X107809523Y-87026247D02*
X107857142Y-87121485D01*
X107857142Y-87121485D02*
X107857142Y-87264342D01*
X107857142Y-87264342D02*
X107809523Y-87359580D01*
X107809523Y-87359580D02*
X107761904Y-87407200D01*
X107761904Y-87407200D02*
X107666666Y-87454819D01*
X107666666Y-87454819D02*
X107285714Y-87454819D01*
X107285714Y-87454819D02*
X107285714Y-86454819D01*
X107285714Y-86454819D02*
X107619047Y-86454819D01*
X107619047Y-86454819D02*
X107714285Y-86502438D01*
X107714285Y-86502438D02*
X107761904Y-86550057D01*
X107761904Y-86550057D02*
X107809523Y-86645295D01*
X107809523Y-86645295D02*
X107809523Y-86740533D01*
X107809523Y-86740533D02*
X107761904Y-86835771D01*
X107761904Y-86835771D02*
X107714285Y-86883390D01*
X107714285Y-86883390D02*
X107619047Y-86931009D01*
X107619047Y-86931009D02*
X107285714Y-86931009D01*
X108190476Y-86454819D02*
X108857142Y-86454819D01*
X108857142Y-86454819D02*
X108190476Y-87454819D01*
X108190476Y-87454819D02*
X108857142Y-87454819D01*
X109761904Y-87454819D02*
X109190476Y-87454819D01*
X109476190Y-87454819D02*
X109476190Y-86454819D01*
X109476190Y-86454819D02*
X109380952Y-86597676D01*
X109380952Y-86597676D02*
X109285714Y-86692914D01*
X109285714Y-86692914D02*
X109190476Y-86740533D01*
X104319048Y-85073866D02*
X105080953Y-85073866D01*
X104700000Y-85454819D02*
X104700000Y-84692914D01*
X113454819Y-116476666D02*
X112978628Y-116809999D01*
X113454819Y-117048094D02*
X112454819Y-117048094D01*
X112454819Y-117048094D02*
X112454819Y-116667142D01*
X112454819Y-116667142D02*
X112502438Y-116571904D01*
X112502438Y-116571904D02*
X112550057Y-116524285D01*
X112550057Y-116524285D02*
X112645295Y-116476666D01*
X112645295Y-116476666D02*
X112788152Y-116476666D01*
X112788152Y-116476666D02*
X112883390Y-116524285D01*
X112883390Y-116524285D02*
X112931009Y-116571904D01*
X112931009Y-116571904D02*
X112978628Y-116667142D01*
X112978628Y-116667142D02*
X112978628Y-117048094D01*
X112788152Y-115619523D02*
X113454819Y-115619523D01*
X112407200Y-115857618D02*
X113121485Y-116095713D01*
X113121485Y-116095713D02*
X113121485Y-115476666D01*
X113454819Y-126976666D02*
X112978628Y-127309999D01*
X113454819Y-127548094D02*
X112454819Y-127548094D01*
X112454819Y-127548094D02*
X112454819Y-127167142D01*
X112454819Y-127167142D02*
X112502438Y-127071904D01*
X112502438Y-127071904D02*
X112550057Y-127024285D01*
X112550057Y-127024285D02*
X112645295Y-126976666D01*
X112645295Y-126976666D02*
X112788152Y-126976666D01*
X112788152Y-126976666D02*
X112883390Y-127024285D01*
X112883390Y-127024285D02*
X112931009Y-127071904D01*
X112931009Y-127071904D02*
X112978628Y-127167142D01*
X112978628Y-127167142D02*
X112978628Y-127548094D01*
X112454819Y-126071904D02*
X112454819Y-126548094D01*
X112454819Y-126548094D02*
X112931009Y-126595713D01*
X112931009Y-126595713D02*
X112883390Y-126548094D01*
X112883390Y-126548094D02*
X112835771Y-126452856D01*
X112835771Y-126452856D02*
X112835771Y-126214761D01*
X112835771Y-126214761D02*
X112883390Y-126119523D01*
X112883390Y-126119523D02*
X112931009Y-126071904D01*
X112931009Y-126071904D02*
X113026247Y-126024285D01*
X113026247Y-126024285D02*
X113264342Y-126024285D01*
X113264342Y-126024285D02*
X113359580Y-126071904D01*
X113359580Y-126071904D02*
X113407200Y-126119523D01*
X113407200Y-126119523D02*
X113454819Y-126214761D01*
X113454819Y-126214761D02*
X113454819Y-126452856D01*
X113454819Y-126452856D02*
X113407200Y-126548094D01*
X113407200Y-126548094D02*
X113359580Y-126595713D01*
X63595238Y-129231009D02*
X63738095Y-129278628D01*
X63738095Y-129278628D02*
X63785714Y-129326247D01*
X63785714Y-129326247D02*
X63833333Y-129421485D01*
X63833333Y-129421485D02*
X63833333Y-129564342D01*
X63833333Y-129564342D02*
X63785714Y-129659580D01*
X63785714Y-129659580D02*
X63738095Y-129707200D01*
X63738095Y-129707200D02*
X63642857Y-129754819D01*
X63642857Y-129754819D02*
X63261905Y-129754819D01*
X63261905Y-129754819D02*
X63261905Y-128754819D01*
X63261905Y-128754819D02*
X63595238Y-128754819D01*
X63595238Y-128754819D02*
X63690476Y-128802438D01*
X63690476Y-128802438D02*
X63738095Y-128850057D01*
X63738095Y-128850057D02*
X63785714Y-128945295D01*
X63785714Y-128945295D02*
X63785714Y-129040533D01*
X63785714Y-129040533D02*
X63738095Y-129135771D01*
X63738095Y-129135771D02*
X63690476Y-129183390D01*
X63690476Y-129183390D02*
X63595238Y-129231009D01*
X63595238Y-129231009D02*
X63261905Y-129231009D01*
X64690476Y-129088152D02*
X64690476Y-129754819D01*
X64452381Y-128707200D02*
X64214286Y-129421485D01*
X64214286Y-129421485D02*
X64833333Y-129421485D01*
X107833333Y-104954819D02*
X107500000Y-104478628D01*
X107261905Y-104954819D02*
X107261905Y-103954819D01*
X107261905Y-103954819D02*
X107642857Y-103954819D01*
X107642857Y-103954819D02*
X107738095Y-104002438D01*
X107738095Y-104002438D02*
X107785714Y-104050057D01*
X107785714Y-104050057D02*
X107833333Y-104145295D01*
X107833333Y-104145295D02*
X107833333Y-104288152D01*
X107833333Y-104288152D02*
X107785714Y-104383390D01*
X107785714Y-104383390D02*
X107738095Y-104431009D01*
X107738095Y-104431009D02*
X107642857Y-104478628D01*
X107642857Y-104478628D02*
X107261905Y-104478628D01*
X108785714Y-104954819D02*
X108214286Y-104954819D01*
X108500000Y-104954819D02*
X108500000Y-103954819D01*
X108500000Y-103954819D02*
X108404762Y-104097676D01*
X108404762Y-104097676D02*
X108309524Y-104192914D01*
X108309524Y-104192914D02*
X108214286Y-104240533D01*
X102261905Y-58954819D02*
X102261905Y-57954819D01*
X102261905Y-57954819D02*
X102500000Y-57954819D01*
X102500000Y-57954819D02*
X102642857Y-58002438D01*
X102642857Y-58002438D02*
X102738095Y-58097676D01*
X102738095Y-58097676D02*
X102785714Y-58192914D01*
X102785714Y-58192914D02*
X102833333Y-58383390D01*
X102833333Y-58383390D02*
X102833333Y-58526247D01*
X102833333Y-58526247D02*
X102785714Y-58716723D01*
X102785714Y-58716723D02*
X102738095Y-58811961D01*
X102738095Y-58811961D02*
X102642857Y-58907200D01*
X102642857Y-58907200D02*
X102500000Y-58954819D01*
X102500000Y-58954819D02*
X102261905Y-58954819D01*
X103785714Y-58954819D02*
X103214286Y-58954819D01*
X103500000Y-58954819D02*
X103500000Y-57954819D01*
X103500000Y-57954819D02*
X103404762Y-58097676D01*
X103404762Y-58097676D02*
X103309524Y-58192914D01*
X103309524Y-58192914D02*
X103214286Y-58240533D01*
X103738095Y-52454819D02*
X103738095Y-51454819D01*
X104309523Y-52454819D02*
X103880952Y-51883390D01*
X104309523Y-51454819D02*
X103738095Y-52026247D01*
X108954819Y-116356666D02*
X108478628Y-116689999D01*
X108954819Y-116928094D02*
X107954819Y-116928094D01*
X107954819Y-116928094D02*
X107954819Y-116547142D01*
X107954819Y-116547142D02*
X108002438Y-116451904D01*
X108002438Y-116451904D02*
X108050057Y-116404285D01*
X108050057Y-116404285D02*
X108145295Y-116356666D01*
X108145295Y-116356666D02*
X108288152Y-116356666D01*
X108288152Y-116356666D02*
X108383390Y-116404285D01*
X108383390Y-116404285D02*
X108431009Y-116451904D01*
X108431009Y-116451904D02*
X108478628Y-116547142D01*
X108478628Y-116547142D02*
X108478628Y-116928094D01*
X107954819Y-116023332D02*
X107954819Y-115404285D01*
X107954819Y-115404285D02*
X108335771Y-115737618D01*
X108335771Y-115737618D02*
X108335771Y-115594761D01*
X108335771Y-115594761D02*
X108383390Y-115499523D01*
X108383390Y-115499523D02*
X108431009Y-115451904D01*
X108431009Y-115451904D02*
X108526247Y-115404285D01*
X108526247Y-115404285D02*
X108764342Y-115404285D01*
X108764342Y-115404285D02*
X108859580Y-115451904D01*
X108859580Y-115451904D02*
X108907200Y-115499523D01*
X108907200Y-115499523D02*
X108954819Y-115594761D01*
X108954819Y-115594761D02*
X108954819Y-115880475D01*
X108954819Y-115880475D02*
X108907200Y-115975713D01*
X108907200Y-115975713D02*
X108859580Y-116023332D01*
X108954819Y-126976666D02*
X108478628Y-127309999D01*
X108954819Y-127548094D02*
X107954819Y-127548094D01*
X107954819Y-127548094D02*
X107954819Y-127167142D01*
X107954819Y-127167142D02*
X108002438Y-127071904D01*
X108002438Y-127071904D02*
X108050057Y-127024285D01*
X108050057Y-127024285D02*
X108145295Y-126976666D01*
X108145295Y-126976666D02*
X108288152Y-126976666D01*
X108288152Y-126976666D02*
X108383390Y-127024285D01*
X108383390Y-127024285D02*
X108431009Y-127071904D01*
X108431009Y-127071904D02*
X108478628Y-127167142D01*
X108478628Y-127167142D02*
X108478628Y-127548094D01*
X107954819Y-126643332D02*
X107954819Y-125976666D01*
X107954819Y-125976666D02*
X108954819Y-126405237D01*
X101265238Y-123231009D02*
X101408095Y-123278628D01*
X101408095Y-123278628D02*
X101455714Y-123326247D01*
X101455714Y-123326247D02*
X101503333Y-123421485D01*
X101503333Y-123421485D02*
X101503333Y-123564342D01*
X101503333Y-123564342D02*
X101455714Y-123659580D01*
X101455714Y-123659580D02*
X101408095Y-123707200D01*
X101408095Y-123707200D02*
X101312857Y-123754819D01*
X101312857Y-123754819D02*
X100931905Y-123754819D01*
X100931905Y-123754819D02*
X100931905Y-122754819D01*
X100931905Y-122754819D02*
X101265238Y-122754819D01*
X101265238Y-122754819D02*
X101360476Y-122802438D01*
X101360476Y-122802438D02*
X101408095Y-122850057D01*
X101408095Y-122850057D02*
X101455714Y-122945295D01*
X101455714Y-122945295D02*
X101455714Y-123040533D01*
X101455714Y-123040533D02*
X101408095Y-123135771D01*
X101408095Y-123135771D02*
X101360476Y-123183390D01*
X101360476Y-123183390D02*
X101265238Y-123231009D01*
X101265238Y-123231009D02*
X100931905Y-123231009D01*
X101836667Y-122754819D02*
X102455714Y-122754819D01*
X102455714Y-122754819D02*
X102122381Y-123135771D01*
X102122381Y-123135771D02*
X102265238Y-123135771D01*
X102265238Y-123135771D02*
X102360476Y-123183390D01*
X102360476Y-123183390D02*
X102408095Y-123231009D01*
X102408095Y-123231009D02*
X102455714Y-123326247D01*
X102455714Y-123326247D02*
X102455714Y-123564342D01*
X102455714Y-123564342D02*
X102408095Y-123659580D01*
X102408095Y-123659580D02*
X102360476Y-123707200D01*
X102360476Y-123707200D02*
X102265238Y-123754819D01*
X102265238Y-123754819D02*
X101979524Y-123754819D01*
X101979524Y-123754819D02*
X101884286Y-123707200D01*
X101884286Y-123707200D02*
X101836667Y-123659580D01*
X104785714Y-47575866D02*
X105547619Y-47575866D01*
X105166666Y-47956819D02*
X105166666Y-47194914D01*
X106499999Y-46956819D02*
X106023809Y-46956819D01*
X106023809Y-46956819D02*
X105976190Y-47433009D01*
X105976190Y-47433009D02*
X106023809Y-47385390D01*
X106023809Y-47385390D02*
X106119047Y-47337771D01*
X106119047Y-47337771D02*
X106357142Y-47337771D01*
X106357142Y-47337771D02*
X106452380Y-47385390D01*
X106452380Y-47385390D02*
X106499999Y-47433009D01*
X106499999Y-47433009D02*
X106547618Y-47528247D01*
X106547618Y-47528247D02*
X106547618Y-47766342D01*
X106547618Y-47766342D02*
X106499999Y-47861580D01*
X106499999Y-47861580D02*
X106452380Y-47909200D01*
X106452380Y-47909200D02*
X106357142Y-47956819D01*
X106357142Y-47956819D02*
X106119047Y-47956819D01*
X106119047Y-47956819D02*
X106023809Y-47909200D01*
X106023809Y-47909200D02*
X105976190Y-47861580D01*
X106880952Y-47290152D02*
X107119047Y-47956819D01*
X107119047Y-47956819D02*
X107357142Y-47290152D01*
X108261904Y-47956819D02*
X107690476Y-47956819D01*
X107976190Y-47956819D02*
X107976190Y-46956819D01*
X107976190Y-46956819D02*
X107880952Y-47099676D01*
X107880952Y-47099676D02*
X107785714Y-47194914D01*
X107785714Y-47194914D02*
X107690476Y-47242533D01*
X96833333Y-54075866D02*
X97595238Y-54075866D01*
X97214285Y-54456819D02*
X97214285Y-53694914D01*
X98404761Y-53933009D02*
X98547618Y-53980628D01*
X98547618Y-53980628D02*
X98595237Y-54028247D01*
X98595237Y-54028247D02*
X98642856Y-54123485D01*
X98642856Y-54123485D02*
X98642856Y-54266342D01*
X98642856Y-54266342D02*
X98595237Y-54361580D01*
X98595237Y-54361580D02*
X98547618Y-54409200D01*
X98547618Y-54409200D02*
X98452380Y-54456819D01*
X98452380Y-54456819D02*
X98071428Y-54456819D01*
X98071428Y-54456819D02*
X98071428Y-53456819D01*
X98071428Y-53456819D02*
X98404761Y-53456819D01*
X98404761Y-53456819D02*
X98499999Y-53504438D01*
X98499999Y-53504438D02*
X98547618Y-53552057D01*
X98547618Y-53552057D02*
X98595237Y-53647295D01*
X98595237Y-53647295D02*
X98595237Y-53742533D01*
X98595237Y-53742533D02*
X98547618Y-53837771D01*
X98547618Y-53837771D02*
X98499999Y-53885390D01*
X98499999Y-53885390D02*
X98404761Y-53933009D01*
X98404761Y-53933009D02*
X98071428Y-53933009D01*
X99023809Y-54171104D02*
X99499999Y-54171104D01*
X98928571Y-54456819D02*
X99261904Y-53456819D01*
X99261904Y-53456819D02*
X99595237Y-54456819D01*
X99785714Y-53456819D02*
X100357142Y-53456819D01*
X100071428Y-54456819D02*
X100071428Y-53456819D01*
X101214285Y-54456819D02*
X100642857Y-54456819D01*
X100928571Y-54456819D02*
X100928571Y-53456819D01*
X100928571Y-53456819D02*
X100833333Y-53599676D01*
X100833333Y-53599676D02*
X100738095Y-53694914D01*
X100738095Y-53694914D02*
X100642857Y-53742533D01*
X96833333Y-58575866D02*
X97595238Y-58575866D01*
X98404761Y-58433009D02*
X98547618Y-58480628D01*
X98547618Y-58480628D02*
X98595237Y-58528247D01*
X98595237Y-58528247D02*
X98642856Y-58623485D01*
X98642856Y-58623485D02*
X98642856Y-58766342D01*
X98642856Y-58766342D02*
X98595237Y-58861580D01*
X98595237Y-58861580D02*
X98547618Y-58909200D01*
X98547618Y-58909200D02*
X98452380Y-58956819D01*
X98452380Y-58956819D02*
X98071428Y-58956819D01*
X98071428Y-58956819D02*
X98071428Y-57956819D01*
X98071428Y-57956819D02*
X98404761Y-57956819D01*
X98404761Y-57956819D02*
X98499999Y-58004438D01*
X98499999Y-58004438D02*
X98547618Y-58052057D01*
X98547618Y-58052057D02*
X98595237Y-58147295D01*
X98595237Y-58147295D02*
X98595237Y-58242533D01*
X98595237Y-58242533D02*
X98547618Y-58337771D01*
X98547618Y-58337771D02*
X98499999Y-58385390D01*
X98499999Y-58385390D02*
X98404761Y-58433009D01*
X98404761Y-58433009D02*
X98071428Y-58433009D01*
X99023809Y-58671104D02*
X99499999Y-58671104D01*
X98928571Y-58956819D02*
X99261904Y-57956819D01*
X99261904Y-57956819D02*
X99595237Y-58956819D01*
X99785714Y-57956819D02*
X100357142Y-57956819D01*
X100071428Y-58956819D02*
X100071428Y-57956819D01*
X101214285Y-58956819D02*
X100642857Y-58956819D01*
X100928571Y-58956819D02*
X100928571Y-57956819D01*
X100928571Y-57956819D02*
X100833333Y-58099676D01*
X100833333Y-58099676D02*
X100738095Y-58194914D01*
X100738095Y-58194914D02*
X100642857Y-58242533D01*
X101515238Y-111231009D02*
X101658095Y-111278628D01*
X101658095Y-111278628D02*
X101705714Y-111326247D01*
X101705714Y-111326247D02*
X101753333Y-111421485D01*
X101753333Y-111421485D02*
X101753333Y-111564342D01*
X101753333Y-111564342D02*
X101705714Y-111659580D01*
X101705714Y-111659580D02*
X101658095Y-111707200D01*
X101658095Y-111707200D02*
X101562857Y-111754819D01*
X101562857Y-111754819D02*
X101181905Y-111754819D01*
X101181905Y-111754819D02*
X101181905Y-110754819D01*
X101181905Y-110754819D02*
X101515238Y-110754819D01*
X101515238Y-110754819D02*
X101610476Y-110802438D01*
X101610476Y-110802438D02*
X101658095Y-110850057D01*
X101658095Y-110850057D02*
X101705714Y-110945295D01*
X101705714Y-110945295D02*
X101705714Y-111040533D01*
X101705714Y-111040533D02*
X101658095Y-111135771D01*
X101658095Y-111135771D02*
X101610476Y-111183390D01*
X101610476Y-111183390D02*
X101515238Y-111231009D01*
X101515238Y-111231009D02*
X101181905Y-111231009D01*
X102705714Y-111754819D02*
X102134286Y-111754819D01*
X102420000Y-111754819D02*
X102420000Y-110754819D01*
X102420000Y-110754819D02*
X102324762Y-110897676D01*
X102324762Y-110897676D02*
X102229524Y-110992914D01*
X102229524Y-110992914D02*
X102134286Y-111040533D01*
X110261904Y-47004438D02*
X110166666Y-46956819D01*
X110166666Y-46956819D02*
X110023809Y-46956819D01*
X110023809Y-46956819D02*
X109880952Y-47004438D01*
X109880952Y-47004438D02*
X109785714Y-47099676D01*
X109785714Y-47099676D02*
X109738095Y-47194914D01*
X109738095Y-47194914D02*
X109690476Y-47385390D01*
X109690476Y-47385390D02*
X109690476Y-47528247D01*
X109690476Y-47528247D02*
X109738095Y-47718723D01*
X109738095Y-47718723D02*
X109785714Y-47813961D01*
X109785714Y-47813961D02*
X109880952Y-47909200D01*
X109880952Y-47909200D02*
X110023809Y-47956819D01*
X110023809Y-47956819D02*
X110119047Y-47956819D01*
X110119047Y-47956819D02*
X110261904Y-47909200D01*
X110261904Y-47909200D02*
X110309523Y-47861580D01*
X110309523Y-47861580D02*
X110309523Y-47528247D01*
X110309523Y-47528247D02*
X110119047Y-47528247D01*
X110738095Y-47956819D02*
X110738095Y-46956819D01*
X110738095Y-46956819D02*
X111309523Y-47956819D01*
X111309523Y-47956819D02*
X111309523Y-46956819D01*
X111785714Y-47956819D02*
X111785714Y-46956819D01*
X111785714Y-46956819D02*
X112023809Y-46956819D01*
X112023809Y-46956819D02*
X112166666Y-47004438D01*
X112166666Y-47004438D02*
X112261904Y-47099676D01*
X112261904Y-47099676D02*
X112309523Y-47194914D01*
X112309523Y-47194914D02*
X112357142Y-47385390D01*
X112357142Y-47385390D02*
X112357142Y-47528247D01*
X112357142Y-47528247D02*
X112309523Y-47718723D01*
X112309523Y-47718723D02*
X112261904Y-47813961D01*
X112261904Y-47813961D02*
X112166666Y-47909200D01*
X112166666Y-47909200D02*
X112023809Y-47956819D01*
X112023809Y-47956819D02*
X111785714Y-47956819D01*
X113309523Y-47956819D02*
X112738095Y-47956819D01*
X113023809Y-47956819D02*
X113023809Y-46956819D01*
X113023809Y-46956819D02*
X112928571Y-47099676D01*
X112928571Y-47099676D02*
X112833333Y-47194914D01*
X112833333Y-47194914D02*
X112738095Y-47242533D01*
X108954819Y-137666666D02*
X108478628Y-137999999D01*
X108954819Y-138238094D02*
X107954819Y-138238094D01*
X107954819Y-138238094D02*
X107954819Y-137857142D01*
X107954819Y-137857142D02*
X108002438Y-137761904D01*
X108002438Y-137761904D02*
X108050057Y-137714285D01*
X108050057Y-137714285D02*
X108145295Y-137666666D01*
X108145295Y-137666666D02*
X108288152Y-137666666D01*
X108288152Y-137666666D02*
X108383390Y-137714285D01*
X108383390Y-137714285D02*
X108431009Y-137761904D01*
X108431009Y-137761904D02*
X108478628Y-137857142D01*
X108478628Y-137857142D02*
X108478628Y-138238094D01*
X108383390Y-137095237D02*
X108335771Y-137190475D01*
X108335771Y-137190475D02*
X108288152Y-137238094D01*
X108288152Y-137238094D02*
X108192914Y-137285713D01*
X108192914Y-137285713D02*
X108145295Y-137285713D01*
X108145295Y-137285713D02*
X108050057Y-137238094D01*
X108050057Y-137238094D02*
X108002438Y-137190475D01*
X108002438Y-137190475D02*
X107954819Y-137095237D01*
X107954819Y-137095237D02*
X107954819Y-136904761D01*
X107954819Y-136904761D02*
X108002438Y-136809523D01*
X108002438Y-136809523D02*
X108050057Y-136761904D01*
X108050057Y-136761904D02*
X108145295Y-136714285D01*
X108145295Y-136714285D02*
X108192914Y-136714285D01*
X108192914Y-136714285D02*
X108288152Y-136761904D01*
X108288152Y-136761904D02*
X108335771Y-136809523D01*
X108335771Y-136809523D02*
X108383390Y-136904761D01*
X108383390Y-136904761D02*
X108383390Y-137095237D01*
X108383390Y-137095237D02*
X108431009Y-137190475D01*
X108431009Y-137190475D02*
X108478628Y-137238094D01*
X108478628Y-137238094D02*
X108573866Y-137285713D01*
X108573866Y-137285713D02*
X108764342Y-137285713D01*
X108764342Y-137285713D02*
X108859580Y-137238094D01*
X108859580Y-137238094D02*
X108907200Y-137190475D01*
X108907200Y-137190475D02*
X108954819Y-137095237D01*
X108954819Y-137095237D02*
X108954819Y-136904761D01*
X108954819Y-136904761D02*
X108907200Y-136809523D01*
X108907200Y-136809523D02*
X108859580Y-136761904D01*
X108859580Y-136761904D02*
X108764342Y-136714285D01*
X108764342Y-136714285D02*
X108573866Y-136714285D01*
X108573866Y-136714285D02*
X108478628Y-136761904D01*
X108478628Y-136761904D02*
X108431009Y-136809523D01*
X108431009Y-136809523D02*
X108383390Y-136904761D01*
X114833333Y-100764819D02*
X114500000Y-100288628D01*
X114261905Y-100764819D02*
X114261905Y-99764819D01*
X114261905Y-99764819D02*
X114642857Y-99764819D01*
X114642857Y-99764819D02*
X114738095Y-99812438D01*
X114738095Y-99812438D02*
X114785714Y-99860057D01*
X114785714Y-99860057D02*
X114833333Y-99955295D01*
X114833333Y-99955295D02*
X114833333Y-100098152D01*
X114833333Y-100098152D02*
X114785714Y-100193390D01*
X114785714Y-100193390D02*
X114738095Y-100241009D01*
X114738095Y-100241009D02*
X114642857Y-100288628D01*
X114642857Y-100288628D02*
X114261905Y-100288628D01*
X115690476Y-99764819D02*
X115500000Y-99764819D01*
X115500000Y-99764819D02*
X115404762Y-99812438D01*
X115404762Y-99812438D02*
X115357143Y-99860057D01*
X115357143Y-99860057D02*
X115261905Y-100002914D01*
X115261905Y-100002914D02*
X115214286Y-100193390D01*
X115214286Y-100193390D02*
X115214286Y-100574342D01*
X115214286Y-100574342D02*
X115261905Y-100669580D01*
X115261905Y-100669580D02*
X115309524Y-100717200D01*
X115309524Y-100717200D02*
X115404762Y-100764819D01*
X115404762Y-100764819D02*
X115595238Y-100764819D01*
X115595238Y-100764819D02*
X115690476Y-100717200D01*
X115690476Y-100717200D02*
X115738095Y-100669580D01*
X115738095Y-100669580D02*
X115785714Y-100574342D01*
X115785714Y-100574342D02*
X115785714Y-100336247D01*
X115785714Y-100336247D02*
X115738095Y-100241009D01*
X115738095Y-100241009D02*
X115690476Y-100193390D01*
X115690476Y-100193390D02*
X115595238Y-100145771D01*
X115595238Y-100145771D02*
X115404762Y-100145771D01*
X115404762Y-100145771D02*
X115309524Y-100193390D01*
X115309524Y-100193390D02*
X115261905Y-100241009D01*
X115261905Y-100241009D02*
X115214286Y-100336247D01*
%TO.C,B2*%
D11*
X98400000Y-118150000D02*
X98400000Y-118610000D01*
X98400000Y-118610000D02*
X97400000Y-118610000D01*
X98400000Y-121390000D02*
X98400000Y-121850000D01*
X98400000Y-121850000D02*
X104600000Y-121850000D01*
X104600000Y-118150000D02*
X98400000Y-118150000D01*
X104600000Y-118150000D02*
X104600000Y-118610000D01*
X104600000Y-121390000D02*
X104600000Y-121850000D01*
X100000000Y-119450000D02*
X102850000Y-119450000D01*
X102850000Y-120500000D01*
X100000000Y-120500000D01*
X100000000Y-119450000D01*
%TO.C,D2*%
X104880000Y-59090000D02*
X107120000Y-59090000D01*
X104880000Y-59210000D02*
X107120000Y-59210000D01*
X104880000Y-59330000D02*
X107120000Y-59330000D01*
X106000000Y-55040000D02*
X106000000Y-55690000D01*
X106000000Y-60580000D02*
X106000000Y-59930000D01*
X104880000Y-55690000D02*
X107120000Y-55690000D01*
X107120000Y-59930000D01*
X104880000Y-59930000D01*
X104880000Y-55690000D01*
%TO.C,R9*%
X111630000Y-134230000D02*
X111630000Y-140770000D01*
X111630000Y-140770000D02*
X111960000Y-140770000D01*
X111960000Y-134230000D02*
X111630000Y-134230000D01*
X114040000Y-134230000D02*
X114370000Y-134230000D01*
X114370000Y-134230000D02*
X114370000Y-140770000D01*
X114370000Y-140770000D02*
X114040000Y-140770000D01*
%TO.C,M1*%
X117620000Y-97120000D02*
X119000000Y-97120000D01*
X117620000Y-98500000D02*
X117620000Y-97120000D01*
X117620000Y-99770000D02*
X117620000Y-104960000D01*
X117620000Y-99770000D02*
X120380000Y-99770000D01*
X117620000Y-104960000D02*
X120380000Y-104960000D01*
X120380000Y-99770000D02*
X120380000Y-104960000D01*
%TO.C,SW1*%
D12*
X99000000Y-79000000D02*
X99000000Y-64000000D01*
X99000000Y-79000000D02*
X106000000Y-79000000D01*
X106000000Y-64000000D02*
X99000000Y-64000000D01*
X106000000Y-79000000D02*
X106000000Y-64000000D01*
%TO.C,C1*%
D11*
X105285000Y-102009698D02*
X106085000Y-102009698D01*
X105685000Y-102409698D02*
X105685000Y-101609698D01*
D12*
X112000000Y-98000000D02*
G75*
G02*
X104000000Y-98000000I-4000000J0D01*
G01*
X104000000Y-98000000D02*
G75*
G02*
X112000000Y-98000000I4000000J0D01*
G01*
%TO.C,R2*%
D11*
X105540000Y-107130000D02*
X112080000Y-107130000D01*
X105540000Y-107460000D02*
X105540000Y-107130000D01*
X105540000Y-109540000D02*
X105540000Y-109870000D01*
X105540000Y-109870000D02*
X112080000Y-109870000D01*
X112080000Y-107130000D02*
X112080000Y-107460000D01*
X112080000Y-109870000D02*
X112080000Y-109540000D01*
%TO.C,LED1*%
D12*
X103666000Y-142976000D02*
X114334000Y-142976000D01*
X114334000Y-146024000D01*
X103666000Y-146024000D01*
X103666000Y-142976000D01*
%TO.C,B5*%
D11*
X98400000Y-136150000D02*
X98400000Y-136610000D01*
X98400000Y-136610000D02*
X97400000Y-136610000D01*
X98400000Y-139390000D02*
X98400000Y-139850000D01*
X98400000Y-139850000D02*
X104600000Y-139850000D01*
X104600000Y-136150000D02*
X98400000Y-136150000D01*
X104600000Y-136150000D02*
X104600000Y-136610000D01*
X104600000Y-139390000D02*
X104600000Y-139850000D01*
X100000000Y-137450000D02*
X102850000Y-137450000D01*
X102850000Y-138500000D01*
X100000000Y-138500000D01*
X100000000Y-137450000D01*
%TO.C,BZ1*%
D12*
X114225000Y-87000000D02*
G75*
G02*
X102795000Y-87000000I-5715000J0D01*
G01*
X102795000Y-87000000D02*
G75*
G02*
X114225000Y-87000000I5715000J0D01*
G01*
%TO.C,R4*%
D11*
X111630000Y-113040000D02*
X111960000Y-113040000D01*
X111630000Y-119580000D02*
X111630000Y-113040000D01*
X111960000Y-119580000D02*
X111630000Y-119580000D01*
X114040000Y-119580000D02*
X114370000Y-119580000D01*
X114370000Y-113040000D02*
X114040000Y-113040000D01*
X114370000Y-119580000D02*
X114370000Y-113040000D01*
%TO.C,R5*%
X111630000Y-123540000D02*
X111960000Y-123540000D01*
X111630000Y-130080000D02*
X111630000Y-123540000D01*
X111960000Y-130080000D02*
X111630000Y-130080000D01*
X114040000Y-130080000D02*
X114370000Y-130080000D01*
X114370000Y-123540000D02*
X114040000Y-123540000D01*
X114370000Y-130080000D02*
X114370000Y-123540000D01*
%TO.C,B4*%
X98400000Y-130150000D02*
X98400000Y-130610000D01*
X98400000Y-130610000D02*
X97400000Y-130610000D01*
X98400000Y-133390000D02*
X98400000Y-133850000D01*
X98400000Y-133850000D02*
X104600000Y-133850000D01*
X104600000Y-130150000D02*
X98400000Y-130150000D01*
X104600000Y-130150000D02*
X104600000Y-130610000D01*
X104600000Y-133390000D02*
X104600000Y-133850000D01*
X100000000Y-131450000D02*
X102850000Y-131450000D01*
X102850000Y-132500000D01*
X100000000Y-132500000D01*
X100000000Y-131450000D01*
%TO.C,R1*%
X104730000Y-103130000D02*
X111270000Y-103130000D01*
X104730000Y-103460000D02*
X104730000Y-103130000D01*
X104730000Y-105540000D02*
X104730000Y-105870000D01*
X104730000Y-105870000D02*
X111270000Y-105870000D01*
X111270000Y-103130000D02*
X111270000Y-103460000D01*
X111270000Y-105870000D02*
X111270000Y-105540000D01*
%TO.C,D1*%
X103000000Y-55040000D02*
X103000000Y-55690000D01*
X103000000Y-60580000D02*
X103000000Y-59930000D01*
X104120000Y-56290000D02*
X101880000Y-56290000D01*
X104120000Y-56410000D02*
X101880000Y-56410000D01*
X104120000Y-56530000D02*
X101880000Y-56530000D01*
X101880000Y-55690000D02*
X104120000Y-55690000D01*
X104120000Y-59930000D01*
X101880000Y-59930000D01*
X101880000Y-55690000D01*
%TO.C,R3*%
X107130000Y-112920000D02*
X107460000Y-112920000D01*
X107130000Y-119460000D02*
X107130000Y-112920000D01*
X107460000Y-119460000D02*
X107130000Y-119460000D01*
X109540000Y-119460000D02*
X109870000Y-119460000D01*
X109870000Y-112920000D02*
X109540000Y-112920000D01*
X109870000Y-119460000D02*
X109870000Y-112920000D01*
%TO.C,R7*%
X107130000Y-123540000D02*
X107130000Y-130080000D01*
X107130000Y-130080000D02*
X107460000Y-130080000D01*
X107460000Y-123540000D02*
X107130000Y-123540000D01*
X109540000Y-123540000D02*
X109870000Y-123540000D01*
X109870000Y-123540000D02*
X109870000Y-130080000D01*
X109870000Y-130080000D02*
X109540000Y-130080000D01*
%TO.C,B3*%
X98400000Y-124150000D02*
X98400000Y-124610000D01*
X98400000Y-124610000D02*
X97400000Y-124610000D01*
X98400000Y-127390000D02*
X98400000Y-127850000D01*
X98400000Y-127850000D02*
X104600000Y-127850000D01*
X104600000Y-124150000D02*
X98400000Y-124150000D01*
X104600000Y-124150000D02*
X104600000Y-124610000D01*
X104600000Y-127390000D02*
X104600000Y-127850000D01*
X100000000Y-125450000D02*
X102850000Y-125450000D01*
X102850000Y-126500000D01*
X100000000Y-126500000D01*
X100000000Y-125450000D01*
%TO.C,+5v1*%
X107700000Y-49500000D02*
G75*
G02*
X105300000Y-49500000I-1200000J0D01*
G01*
X105300000Y-49500000D02*
G75*
G02*
X107700000Y-49500000I1200000J0D01*
G01*
%TO.C,+BAT1*%
X100200000Y-56000000D02*
G75*
G02*
X97800000Y-56000000I-1200000J0D01*
G01*
X97800000Y-56000000D02*
G75*
G02*
X100200000Y-56000000I1200000J0D01*
G01*
%TO.C,-BAT1*%
X100200000Y-60500000D02*
G75*
G02*
X97800000Y-60500000I-1200000J0D01*
G01*
X97800000Y-60500000D02*
G75*
G02*
X100200000Y-60500000I1200000J0D01*
G01*
%TO.C,B1*%
X98650000Y-112150000D02*
X98650000Y-112610000D01*
X98650000Y-112610000D02*
X97650000Y-112610000D01*
X98650000Y-115390000D02*
X98650000Y-115850000D01*
X98650000Y-115850000D02*
X104850000Y-115850000D01*
X104850000Y-112150000D02*
X98650000Y-112150000D01*
X104850000Y-112150000D02*
X104850000Y-112610000D01*
X104850000Y-115390000D02*
X104850000Y-115850000D01*
X100250000Y-113450000D02*
X103100000Y-113450000D01*
X103100000Y-114500000D01*
X100250000Y-114500000D01*
X100250000Y-113450000D01*
%TO.C,GND1*%
X112700000Y-49500000D02*
G75*
G02*
X110300000Y-49500000I-1200000J0D01*
G01*
X110300000Y-49500000D02*
G75*
G02*
X112700000Y-49500000I1200000J0D01*
G01*
%TO.C,R8*%
X107130000Y-134230000D02*
X107130000Y-140770000D01*
X107130000Y-140770000D02*
X107460000Y-140770000D01*
X107460000Y-134230000D02*
X107130000Y-134230000D01*
X109540000Y-134230000D02*
X109870000Y-134230000D01*
X109870000Y-134230000D02*
X109870000Y-140770000D01*
X109870000Y-140770000D02*
X109540000Y-140770000D01*
%TO.C,R6*%
X113630000Y-97040000D02*
X113630000Y-103580000D01*
X113630000Y-103580000D02*
X113960000Y-103580000D01*
X113960000Y-97040000D02*
X113630000Y-97040000D01*
X116040000Y-97040000D02*
X116370000Y-97040000D01*
X116370000Y-97040000D02*
X116370000Y-103580000D01*
X116370000Y-103580000D02*
X116040000Y-103580000D01*
%TD*%
D13*
X96500000Y-50000000D02*
X96500000Y-143000000D01*
X96500000Y-50000000D02*
G75*
G02*
X100000000Y-46500000I3500000J0D01*
G01*
X100000000Y-46500000D02*
X118000000Y-46500000D01*
X100000000Y-146500000D02*
G75*
G02*
X96500000Y-143000000I0J3500000D01*
G01*
X100000000Y-146500000D02*
X118000000Y-146500000D01*
X108500000Y-56000000D02*
X108500000Y-79000000D01*
X108500000Y-79000000D02*
X121500000Y-79000000D01*
X118000000Y-46500000D02*
G75*
G02*
X121500000Y-50000000I0J-3500000D01*
G01*
X121500000Y-50000000D02*
X121500000Y-56000000D01*
X121500000Y-56000000D02*
X108500000Y-56000000D01*
X121500000Y-79000000D02*
X121500000Y-143000000D01*
X121500000Y-143000000D02*
G75*
G02*
X118000000Y-146500000I-3500000J0D01*
G01*
M02*
