M48
; DRILL file KiCad 10.0.0 date 2026-06-24T16:12:52
; FORMAT={-:-/ absolute / metric / decimal}
; #@! TF.CreationDate,2026-06-24T16:12:52+02:00
; #@! TF.GenerationSoftware,Kicad,Pcbnew,10.0.0
; #@! TF.FileFunction,Plated,1,2,PTH
FMAT,2
METRIC
; #@! TA.AperFunction,Plated,PTH,ComponentDrill
T1C0.800
; #@! TA.AperFunction,Plated,PTH,ComponentDrill
T2C1.000
; #@! TA.AperFunction,Plated,PTH,ComponentDrill
T3C1.100
; #@! TA.AperFunction,Plated,PTH,ComponentDrill
T4C1.300
%
G90
G05
T1
X103.0Y-54.0
X103.0Y-61.62
X104.19Y-104.5
X105.0Y-108.5
X106.0Y-54.0
X106.0Y-61.62
X108.0Y-95.5
X108.0Y-100.5
X108.5Y-112.38
X108.5Y-120.0
X108.5Y-123.0
X108.5Y-130.62
X108.5Y-133.69
X108.5Y-141.31
X111.81Y-104.5
X112.62Y-108.5
X113.0Y-112.5
X113.0Y-120.12
X113.0Y-123.0
X113.0Y-130.62
X113.0Y-133.69
X113.0Y-141.31
X115.0Y-96.5
X115.0Y-104.12
T2
X99.0Y-56.0
X99.0Y-60.5
X100.5Y-86.0
X100.5Y-93.0
X101.0Y-67.5
X101.0Y-71.5
X101.0Y-75.5
X101.37Y-99.45
X101.37Y-101.99
X101.37Y-104.53
X101.37Y-107.07
X101.37Y-109.61
X104.0Y-67.5
X104.0Y-71.5
X104.0Y-75.5
X105.19Y-144.5
X106.5Y-49.5
X107.73Y-144.5
X110.27Y-144.5
X111.5Y-49.5
X112.81Y-144.5
X116.61Y-107.07
X116.61Y-109.61
X116.61Y-112.15
X116.61Y-114.69
X116.61Y-117.23
X116.61Y-119.77
X116.61Y-122.31
X116.61Y-124.85
X116.61Y-127.39
X116.61Y-129.93
X116.61Y-132.47
X116.61Y-135.01
X117.5Y-89.0
X117.5Y-93.0
X119.0Y-98.5
X119.0Y-101.04
X119.0Y-103.58
T3
X104.7Y-87.0
X112.3Y-87.0
T4
X98.25Y-120.0
X98.25Y-126.0
X98.25Y-132.0
X98.25Y-138.0
X98.5Y-114.0
X104.75Y-120.0
X104.75Y-126.0
X104.75Y-132.0
X104.75Y-138.0
X105.0Y-114.0
M30
