%TF.GenerationSoftware,KiCad,Pcbnew,10.0.0*%
%TF.CreationDate,2026-06-24T16:10:11+02:00*%
%TF.ProjectId,test plane + arduino,74657374-2070-46c6-916e-65202b206172,rev?*%
%TF.SameCoordinates,Original*%
%TF.FileFunction,Copper,L2,Bot*%
%TF.FilePolarity,Positive*%
%FSLAX46Y46*%
G04 Gerber Fmt 4.6, Leading zero omitted, Abs format (unit mm)*
G04 Created by KiCad (PCBNEW 10.0.0) date 2026-06-24 16:10:11*
%MOMM*%
%LPD*%
G01*
G04 APERTURE LIST*
G04 Aperture macros list*
%AMRoundRect*
0 Rectangle with rounded corners*
0 $1 Rounding radius*
0 $2 $3 $4 $5 $6 $7 $8 $9 X,Y pos of 4 corners*
0 Add a 4 corners polygon primitive as box body*
4,1,4,$2,$3,$4,$5,$6,$7,$8,$9,$2,$3,0*
0 Add four circle primitives for the rounded corners*
1,1,$1+$1,$2,$3*
1,1,$1+$1,$4,$5*
1,1,$1+$1,$6,$7*
1,1,$1+$1,$8,$9*
0 Add four rect primitives between the rounded corners*
20,1,$1+$1,$2,$3,$4,$5,0*
20,1,$1+$1,$4,$5,$6,$7,0*
20,1,$1+$1,$6,$7,$8,$9,0*
20,1,$1+$1,$8,$9,$2,$3,0*%
G04 Aperture macros list end*
%TA.AperFunction,ComponentPad*%
%ADD10R,2.250000X2.250000*%
%TD*%
%TA.AperFunction,ComponentPad*%
%ADD11C,2.250000*%
%TD*%
%TA.AperFunction,ComponentPad*%
%ADD12RoundRect,0.250000X0.550000X-0.550000X0.550000X0.550000X-0.550000X0.550000X-0.550000X-0.550000X0*%
%TD*%
%TA.AperFunction,ComponentPad*%
%ADD13C,1.600000*%
%TD*%
%TA.AperFunction,ComponentPad*%
%ADD14R,1.700000X1.700000*%
%TD*%
%TA.AperFunction,ComponentPad*%
%ADD15C,1.700000*%
%TD*%
%TA.AperFunction,ComponentPad*%
%ADD16C,2.000000*%
%TD*%
%TA.AperFunction,ComponentPad*%
%ADD17R,2.000000X2.000000*%
%TD*%
%TA.AperFunction,ComponentPad*%
%ADD18RoundRect,0.250000X-0.550000X0.550000X-0.550000X-0.550000X0.550000X-0.550000X0.550000X0.550000X0*%
%TD*%
%TA.AperFunction,ComponentPad*%
%ADD19O,1.600000X1.600000*%
%TD*%
%TA.AperFunction,ComponentPad*%
%ADD20RoundRect,0.250001X0.499999X0.499999X-0.499999X0.499999X-0.499999X-0.499999X0.499999X-0.499999X0*%
%TD*%
%TA.AperFunction,ComponentPad*%
%ADD21C,1.500000*%
%TD*%
%TA.AperFunction,Conductor*%
%ADD22C,0.200000*%
%TD*%
%TA.AperFunction,Profile*%
%ADD23C,0.050000*%
%TD*%
G04 APERTURE END LIST*
D10*
%TO.P,B2,1,1_1*%
%TO.N,Net-(A1-+5V)*%
X98250000Y-120000000D03*
D11*
%TO.P,B2,2,2_2*%
%TO.N,Net-(A1-D3)*%
X104750000Y-120000000D03*
%TD*%
D12*
%TO.P,D2,1,K_1*%
%TO.N,Net-(D2-K)*%
X106000000Y-61620000D03*
D13*
%TO.P,D2,2,A_2*%
%TO.N,Net-(D2-A)*%
X106000000Y-54000000D03*
%TD*%
%TO.P,R9,1*%
%TO.N,Net-(A1-D10)*%
X113000000Y-133690000D03*
%TO.P,R9,2*%
%TO.N,Net-(LED1-BA)*%
X113000000Y-141310000D03*
%TD*%
D14*
%TO.P,M1,1,PWM_1*%
%TO.N,Net-(A1-D6)*%
X119000000Y-98500000D03*
D15*
%TO.P,M1,2,+_2*%
%TO.N,Net-(A1-+5V)*%
X119000000Y-101040000D03*
%TO.P,M1,3,-_3*%
%TO.N,Net-(BZ1--)*%
X119000000Y-103580000D03*
%TD*%
D16*
%TO.P,SW1,1,A_1*%
%TO.N,unconnected-(SW1-A-Pad1)*%
X101000000Y-75500000D03*
%TO.P,SW1,2,B_2*%
%TO.N,Net-(BT1-+)*%
X101000000Y-71500000D03*
%TO.P,SW1,3,C_3*%
%TO.N,Net-(D1-A)*%
X101000000Y-67500000D03*
%TO.P,SW1,4,A_4*%
%TO.N,Net-(Converter1-+VOUT)*%
X104000000Y-75500000D03*
%TO.P,SW1,5,B_5*%
%TO.N,Net-(A1-+5V)*%
X104000000Y-71500000D03*
%TO.P,SW1,6,C_6*%
%TO.N,Net-(D2-K)*%
X104000000Y-67500000D03*
%TD*%
D12*
%TO.P,C1,1*%
%TO.N,Net-(A1-+5V)*%
X108000000Y-100500000D03*
D13*
%TO.P,C1,2*%
%TO.N,Net-(A1-GND-Pad29)*%
X108000000Y-95500000D03*
%TD*%
%TO.P,R2,1*%
%TO.N,Net-(A1-D3)*%
X105000000Y-108500000D03*
%TO.P,R2,2*%
%TO.N,Net-(BZ1--)*%
X112620000Y-108500000D03*
%TD*%
D14*
%TO.P,LED1,1,K_1*%
%TO.N,Net-(BZ1--)*%
X107730000Y-144500000D03*
D15*
%TO.P,LED1,2,RA_2*%
%TO.N,Net-(LED1-RA)*%
X105190000Y-144500000D03*
%TO.P,LED1,3,GA_3*%
%TO.N,Net-(LED1-GA)*%
X110270000Y-144500000D03*
%TO.P,LED1,4,BA_4*%
%TO.N,Net-(LED1-BA)*%
X112810000Y-144500000D03*
%TD*%
D10*
%TO.P,B5,1,1_1*%
%TO.N,Net-(A1-+5V)*%
X98250000Y-138000000D03*
D11*
%TO.P,B5,2,2_2*%
%TO.N,Net-(A1-D11)*%
X104750000Y-138000000D03*
%TD*%
D17*
%TO.P,BZ1,1,+_1*%
%TO.N,Net-(BZ1-+)*%
X104700000Y-87000000D03*
D16*
%TO.P,BZ1,2,-_2*%
%TO.N,Net-(BZ1--)*%
X112300000Y-87000000D03*
%TD*%
D13*
%TO.P,R4,1*%
%TO.N,Net-(A1-D5)*%
X113000000Y-120120000D03*
%TO.P,R4,2*%
%TO.N,Net-(BZ1--)*%
X113000000Y-112500000D03*
%TD*%
%TO.P,R5,1*%
%TO.N,Net-(A1-D11)*%
X113000000Y-130620000D03*
%TO.P,R5,2*%
%TO.N,Net-(BZ1--)*%
X113000000Y-123000000D03*
%TD*%
D10*
%TO.P,B4,1,1_1*%
%TO.N,Net-(A1-+5V)*%
X98250000Y-132000000D03*
D11*
%TO.P,B4,2,2_2*%
%TO.N,Net-(A1-D5)*%
X104750000Y-132000000D03*
%TD*%
D13*
%TO.P,R1,1*%
%TO.N,Net-(A1-D2)*%
X104190000Y-104500000D03*
%TO.P,R1,2*%
%TO.N,Net-(BZ1--)*%
X111810000Y-104500000D03*
%TD*%
D18*
%TO.P,D1,1,K_1*%
%TO.N,Net-(Converter1-+VIN)*%
X103000000Y-54000000D03*
D13*
%TO.P,D1,2,A_2*%
%TO.N,Net-(D1-A)*%
X103000000Y-61620000D03*
%TD*%
%TO.P,R3,1*%
%TO.N,Net-(A1-D4)*%
X108500000Y-120000000D03*
%TO.P,R3,2*%
%TO.N,Net-(BZ1--)*%
X108500000Y-112380000D03*
%TD*%
%TO.P,R7,1*%
%TO.N,Net-(A1-D9)*%
X108500000Y-123000000D03*
%TO.P,R7,2*%
%TO.N,Net-(LED1-RA)*%
X108500000Y-130620000D03*
%TD*%
D10*
%TO.P,B3,1,1_1*%
%TO.N,Net-(A1-+5V)*%
X98250000Y-126000000D03*
D11*
%TO.P,B3,2,2_2*%
%TO.N,Net-(A1-D4)*%
X104750000Y-126000000D03*
%TD*%
D16*
%TO.P,+5v1,1,1_1*%
%TO.N,Net-(D2-A)*%
X106500000Y-49500000D03*
%TD*%
%TO.P,+BAT1,1,1_1*%
%TO.N,Net-(BT1-+)*%
X99000000Y-56000000D03*
%TD*%
%TO.P,-BAT1,1,1_1*%
%TO.N,Net-(BT1--)*%
X99000000Y-60500000D03*
%TD*%
D10*
%TO.P,B1,1,1_1*%
%TO.N,Net-(A1-+5V)*%
X98500000Y-114000000D03*
D11*
%TO.P,B1,2,2_2*%
%TO.N,Net-(A1-D2)*%
X105000000Y-114000000D03*
%TD*%
D16*
%TO.P,GND1,1,1_1*%
%TO.N,Net-(BZ1--)*%
X111500000Y-49500000D03*
%TD*%
D13*
%TO.P,R8,1*%
%TO.N,Net-(A1-D8)*%
X108500000Y-133690000D03*
%TO.P,R8,2*%
%TO.N,Net-(LED1-GA)*%
X108500000Y-141310000D03*
%TD*%
%TO.P,R6,1*%
%TO.N,Net-(BZ1-+)*%
X115000000Y-96500000D03*
%TO.P,R6,2*%
%TO.N,Net-(A1-D7)*%
X115000000Y-104120000D03*
%TD*%
D19*
%TO.P,A1,4,GND_4*%
%TO.N,Net-(BZ1--)*%
X116610000Y-107070000D03*
%TO.P,A1,5,D2_5*%
%TO.N,Net-(A1-D2)*%
X116610000Y-109610000D03*
%TO.P,A1,6,D3_6*%
%TO.N,Net-(A1-D3)*%
X116610000Y-112150000D03*
%TO.P,A1,7,D4_7*%
%TO.N,Net-(A1-D4)*%
X116610000Y-114690000D03*
%TO.P,A1,8,D5_8*%
%TO.N,Net-(A1-D5)*%
X116610000Y-117230000D03*
%TO.P,A1,9,D6_9*%
%TO.N,Net-(A1-D6)*%
X116610000Y-119770000D03*
%TO.P,A1,10,D7_10*%
%TO.N,Net-(A1-D7)*%
X116610000Y-122310000D03*
%TO.P,A1,11,D8_11*%
%TO.N,Net-(A1-D8)*%
X116610000Y-124850000D03*
%TO.P,A1,12,D9_12*%
%TO.N,Net-(A1-D9)*%
X116610000Y-127390000D03*
%TO.P,A1,13,D10_13*%
%TO.N,Net-(A1-D10)*%
X116610000Y-129930000D03*
%TO.P,A1,14,D11_14*%
%TO.N,Net-(A1-D11)*%
X116610000Y-132470000D03*
%TO.P,A1,15,D12_15*%
%TO.N,unconnected-(A1-D12-Pad15)*%
X116610000Y-135010000D03*
%TO.P,A1,26,A7_26*%
%TO.N,unconnected-(A1-A7-Pad26)*%
X101370000Y-109610000D03*
%TO.P,A1,27,+5V_27*%
%TO.N,Net-(A1-+5V)*%
X101370000Y-107070000D03*
%TO.P,A1,28,~{RESET}_28*%
%TO.N,unconnected-(A1-~{RESET}-Pad28)*%
X101370000Y-104530000D03*
%TO.P,A1,29,GND_29*%
%TO.N,Net-(A1-GND-Pad29)*%
X101370000Y-101990000D03*
%TO.P,A1,30,VIN_30*%
%TO.N,unconnected-(A1-VIN-Pad30)*%
X101370000Y-99450000D03*
%TD*%
D20*
%TO.P,Converter1,1,-VIN_1*%
%TO.N,Net-(BT1--)*%
X117500000Y-89000000D03*
D21*
%TO.P,Converter1,4,+VIN_4*%
%TO.N,Net-(Converter1-+VIN)*%
X117500000Y-93000000D03*
%TO.P,Converter1,5,+VOUT_5*%
%TO.N,Net-(Converter1-+VOUT)*%
X100500000Y-93000000D03*
D16*
%TO.P,Converter1,7,-VOUT_7*%
%TO.N,Net-(BZ1--)*%
X100500000Y-86000000D03*
%TD*%
%TO.N,Net-(A1-+5V)*%
D22*
X104000000Y-92500000D02*
X104000000Y-98000000D01*
X98500000Y-84500000D02*
X98500000Y-90000000D01*
X104000000Y-71500000D02*
X106500000Y-74000000D01*
X98500000Y-90000000D02*
X101500000Y-90000000D01*
X101500000Y-90000000D02*
X104000000Y-92500000D01*
X106500000Y-76500000D02*
X98500000Y-84500000D01*
X106500000Y-100500000D02*
X108000000Y-100500000D01*
X104000000Y-98000000D02*
X106500000Y-100500000D01*
X106500000Y-74000000D02*
X106500000Y-76500000D01*
%TO.N,Net-(A1-D3)*%
X105000000Y-110500000D02*
X105000000Y-108500000D01*
X113510000Y-115250000D02*
X109500000Y-115250000D01*
X109500000Y-115250000D02*
X104750000Y-120000000D01*
X104750000Y-120000000D02*
X102250000Y-117500000D01*
X102250000Y-113250000D02*
X105000000Y-110500000D01*
X102250000Y-117500000D02*
X102250000Y-113250000D01*
X116610000Y-112150000D02*
X113510000Y-115250000D01*
%TO.N,Net-(BZ1--)*%
X112300000Y-87000000D02*
X120900000Y-87000000D01*
X120900000Y-103100000D02*
X120420000Y-103580000D01*
X120900000Y-87000000D02*
X120900000Y-103100000D01*
X112300000Y-87000000D02*
X108800000Y-83500000D01*
X120420000Y-103580000D02*
X119000000Y-103580000D01*
X108800000Y-83500000D02*
X103000000Y-83500000D01*
X103000000Y-83500000D02*
X100500000Y-86000000D01*
%TO.N,Net-(Converter1-+VOUT)*%
X104000000Y-75500000D02*
X98000000Y-81500000D01*
X98000000Y-81500000D02*
X98000000Y-83500000D01*
X97100000Y-84400000D02*
X97100000Y-89600000D01*
X97100000Y-89600000D02*
X100500000Y-93000000D01*
X98000000Y-83500000D02*
X97100000Y-84400000D01*
%TO.N,Net-(A1-D11)*%
X106500000Y-136250000D02*
X104750000Y-138000000D01*
X108000000Y-136250000D02*
X106500000Y-136250000D01*
X113000000Y-130620000D02*
X111750000Y-131870000D01*
X111750000Y-131870000D02*
X111750000Y-132500000D01*
X111750000Y-132500000D02*
X108000000Y-136250000D01*
%TO.N,Net-(A1-D5)*%
X107750000Y-121500000D02*
X106250000Y-123000000D01*
X110250000Y-121500000D02*
X107750000Y-121500000D01*
X107000000Y-125250000D02*
X107000000Y-129750000D01*
X106250000Y-124500000D02*
X107000000Y-125250000D01*
X107000000Y-129750000D02*
X104750000Y-132000000D01*
X106250000Y-123000000D02*
X106250000Y-124500000D01*
X111630000Y-120120000D02*
X110250000Y-121500000D01*
X113000000Y-120120000D02*
X111630000Y-120120000D01*
%TO.N,Net-(A1-D2)*%
X106750000Y-115750000D02*
X107750000Y-115750000D01*
X105000000Y-114000000D02*
X106750000Y-115750000D01*
X107750000Y-115750000D02*
X113890000Y-109610000D01*
X113890000Y-109610000D02*
X116610000Y-109610000D01*
%TO.N,Net-(A1-D4)*%
X104750000Y-123500000D02*
X104750000Y-126000000D01*
X106750000Y-121750000D02*
X106500000Y-121750000D01*
X108500000Y-120000000D02*
X106750000Y-121750000D01*
X114050000Y-117250000D02*
X111250000Y-117250000D01*
X116610000Y-114690000D02*
X114050000Y-117250000D01*
X106500000Y-121750000D02*
X104750000Y-123500000D01*
X111250000Y-117250000D02*
X108500000Y-120000000D01*
%TO.N,Net-(A1-D9)*%
X108500000Y-123000000D02*
X112890000Y-127390000D01*
X112890000Y-127390000D02*
X116610000Y-127390000D01*
%TO.N,Net-(A1-D7)*%
X115000000Y-104120000D02*
X116380000Y-105500000D01*
X119250000Y-106000000D02*
X119250000Y-119670000D01*
X119250000Y-119670000D02*
X116610000Y-122310000D01*
X118750000Y-105500000D02*
X119250000Y-106000000D01*
X116380000Y-105500000D02*
X118750000Y-105500000D01*
%TD*%
D23*
X96500000Y-50000000D02*
X96500000Y-143000000D01*
X96500000Y-50000000D02*
G75*
G02*
X100000000Y-46500000I3500000J0D01*
G01*
X100000000Y-46500000D02*
X118000000Y-46500000D01*
X100000000Y-146500000D02*
G75*
G02*
X96500000Y-143000000I0J3500000D01*
G01*
X100000000Y-146500000D02*
X118000000Y-146500000D01*
X108500000Y-56000000D02*
X108500000Y-79000000D01*
X108500000Y-79000000D02*
X121500000Y-79000000D01*
X118000000Y-46500000D02*
G75*
G02*
X121500000Y-50000000I0J-3500000D01*
G01*
X121500000Y-50000000D02*
X121500000Y-56000000D01*
X121500000Y-56000000D02*
X108500000Y-56000000D01*
X121500000Y-79000000D02*
X121500000Y-143000000D01*
X121500000Y-143000000D02*
G75*
G02*
X118000000Y-146500000I-3500000J0D01*
G01*
M02*
