%TF.GenerationSoftware,KiCad,Pcbnew,10.0.0*%
%TF.CreationDate,2026-06-24T16:10:11+02:00*%
%TF.ProjectId,test plane + arduino,74657374-2070-46c6-916e-65202b206172,rev?*%
%TF.SameCoordinates,Original*%
%TF.FileFunction,Legend,Bot*%
%TF.FilePolarity,Positive*%
%FSLAX46Y46*%
G04 Gerber Fmt 4.6, Leading zero omitted, Abs format (unit mm)*
G04 Created by KiCad (PCBNEW 10.0.0) date 2026-06-24 16:10:11*
%MOMM*%
%LPD*%
G01*
G04 APERTURE LIST*
%ADD10C,0.150000*%
%ADD11C,0.120000*%
%ADD12C,0.100000*%
%TA.AperFunction,Profile*%
%ADD13C,0.050000*%
%TD*%
G04 APERTURE END LIST*
D10*
X110251904Y-134464819D02*
X110251904Y-135274342D01*
X110251904Y-135274342D02*
X110204285Y-135369580D01*
X110204285Y-135369580D02*
X110156666Y-135417200D01*
X110156666Y-135417200D02*
X110061428Y-135464819D01*
X110061428Y-135464819D02*
X109870952Y-135464819D01*
X109870952Y-135464819D02*
X109775714Y-135417200D01*
X109775714Y-135417200D02*
X109728095Y-135369580D01*
X109728095Y-135369580D02*
X109680476Y-135274342D01*
X109680476Y-135274342D02*
X109680476Y-134464819D01*
X109251904Y-135417200D02*
X109109047Y-135464819D01*
X109109047Y-135464819D02*
X108870952Y-135464819D01*
X108870952Y-135464819D02*
X108775714Y-135417200D01*
X108775714Y-135417200D02*
X108728095Y-135369580D01*
X108728095Y-135369580D02*
X108680476Y-135274342D01*
X108680476Y-135274342D02*
X108680476Y-135179104D01*
X108680476Y-135179104D02*
X108728095Y-135083866D01*
X108728095Y-135083866D02*
X108775714Y-135036247D01*
X108775714Y-135036247D02*
X108870952Y-134988628D01*
X108870952Y-134988628D02*
X109061428Y-134941009D01*
X109061428Y-134941009D02*
X109156666Y-134893390D01*
X109156666Y-134893390D02*
X109204285Y-134845771D01*
X109204285Y-134845771D02*
X109251904Y-134750533D01*
X109251904Y-134750533D02*
X109251904Y-134655295D01*
X109251904Y-134655295D02*
X109204285Y-134560057D01*
X109204285Y-134560057D02*
X109156666Y-134512438D01*
X109156666Y-134512438D02*
X109061428Y-134464819D01*
X109061428Y-134464819D02*
X108823333Y-134464819D01*
X108823333Y-134464819D02*
X108680476Y-134512438D01*
X107918571Y-134941009D02*
X107775714Y-134988628D01*
X107775714Y-134988628D02*
X107728095Y-135036247D01*
X107728095Y-135036247D02*
X107680476Y-135131485D01*
X107680476Y-135131485D02*
X107680476Y-135274342D01*
X107680476Y-135274342D02*
X107728095Y-135369580D01*
X107728095Y-135369580D02*
X107775714Y-135417200D01*
X107775714Y-135417200D02*
X107870952Y-135464819D01*
X107870952Y-135464819D02*
X108251904Y-135464819D01*
X108251904Y-135464819D02*
X108251904Y-134464819D01*
X108251904Y-134464819D02*
X107918571Y-134464819D01*
X107918571Y-134464819D02*
X107823333Y-134512438D01*
X107823333Y-134512438D02*
X107775714Y-134560057D01*
X107775714Y-134560057D02*
X107728095Y-134655295D01*
X107728095Y-134655295D02*
X107728095Y-134750533D01*
X107728095Y-134750533D02*
X107775714Y-134845771D01*
X107775714Y-134845771D02*
X107823333Y-134893390D01*
X107823333Y-134893390D02*
X107918571Y-134941009D01*
X107918571Y-134941009D02*
X108251904Y-134941009D01*
X113714286Y-85859580D02*
X113761905Y-85907200D01*
X113761905Y-85907200D02*
X113904762Y-85954819D01*
X113904762Y-85954819D02*
X114000000Y-85954819D01*
X114000000Y-85954819D02*
X114142857Y-85907200D01*
X114142857Y-85907200D02*
X114238095Y-85811961D01*
X114238095Y-85811961D02*
X114285714Y-85716723D01*
X114285714Y-85716723D02*
X114333333Y-85526247D01*
X114333333Y-85526247D02*
X114333333Y-85383390D01*
X114333333Y-85383390D02*
X114285714Y-85192914D01*
X114285714Y-85192914D02*
X114238095Y-85097676D01*
X114238095Y-85097676D02*
X114142857Y-85002438D01*
X114142857Y-85002438D02*
X114000000Y-84954819D01*
X114000000Y-84954819D02*
X113904762Y-84954819D01*
X113904762Y-84954819D02*
X113761905Y-85002438D01*
X113761905Y-85002438D02*
X113714286Y-85050057D01*
X113142857Y-85954819D02*
X113238095Y-85907200D01*
X113238095Y-85907200D02*
X113285714Y-85859580D01*
X113285714Y-85859580D02*
X113333333Y-85764342D01*
X113333333Y-85764342D02*
X113333333Y-85478628D01*
X113333333Y-85478628D02*
X113285714Y-85383390D01*
X113285714Y-85383390D02*
X113238095Y-85335771D01*
X113238095Y-85335771D02*
X113142857Y-85288152D01*
X113142857Y-85288152D02*
X113000000Y-85288152D01*
X113000000Y-85288152D02*
X112904762Y-85335771D01*
X112904762Y-85335771D02*
X112857143Y-85383390D01*
X112857143Y-85383390D02*
X112809524Y-85478628D01*
X112809524Y-85478628D02*
X112809524Y-85764342D01*
X112809524Y-85764342D02*
X112857143Y-85859580D01*
X112857143Y-85859580D02*
X112904762Y-85907200D01*
X112904762Y-85907200D02*
X113000000Y-85954819D01*
X113000000Y-85954819D02*
X113142857Y-85954819D01*
X112380952Y-85288152D02*
X112380952Y-85954819D01*
X112380952Y-85383390D02*
X112333333Y-85335771D01*
X112333333Y-85335771D02*
X112238095Y-85288152D01*
X112238095Y-85288152D02*
X112095238Y-85288152D01*
X112095238Y-85288152D02*
X112000000Y-85335771D01*
X112000000Y-85335771D02*
X111952381Y-85431009D01*
X111952381Y-85431009D02*
X111952381Y-85954819D01*
X111571428Y-85288152D02*
X111333333Y-85954819D01*
X111333333Y-85954819D02*
X111095238Y-85288152D01*
X110333333Y-85907200D02*
X110428571Y-85954819D01*
X110428571Y-85954819D02*
X110619047Y-85954819D01*
X110619047Y-85954819D02*
X110714285Y-85907200D01*
X110714285Y-85907200D02*
X110761904Y-85811961D01*
X110761904Y-85811961D02*
X110761904Y-85431009D01*
X110761904Y-85431009D02*
X110714285Y-85335771D01*
X110714285Y-85335771D02*
X110619047Y-85288152D01*
X110619047Y-85288152D02*
X110428571Y-85288152D01*
X110428571Y-85288152D02*
X110333333Y-85335771D01*
X110333333Y-85335771D02*
X110285714Y-85431009D01*
X110285714Y-85431009D02*
X110285714Y-85526247D01*
X110285714Y-85526247D02*
X110761904Y-85621485D01*
X109857142Y-85954819D02*
X109857142Y-85288152D01*
X109857142Y-85478628D02*
X109809523Y-85383390D01*
X109809523Y-85383390D02*
X109761904Y-85335771D01*
X109761904Y-85335771D02*
X109666666Y-85288152D01*
X109666666Y-85288152D02*
X109571428Y-85288152D01*
X109380951Y-85288152D02*
X108999999Y-85288152D01*
X109238094Y-84954819D02*
X109238094Y-85811961D01*
X109238094Y-85811961D02*
X109190475Y-85907200D01*
X109190475Y-85907200D02*
X109095237Y-85954819D01*
X109095237Y-85954819D02*
X108999999Y-85954819D01*
X108285713Y-85907200D02*
X108380951Y-85954819D01*
X108380951Y-85954819D02*
X108571427Y-85954819D01*
X108571427Y-85954819D02*
X108666665Y-85907200D01*
X108666665Y-85907200D02*
X108714284Y-85811961D01*
X108714284Y-85811961D02*
X108714284Y-85431009D01*
X108714284Y-85431009D02*
X108666665Y-85335771D01*
X108666665Y-85335771D02*
X108571427Y-85288152D01*
X108571427Y-85288152D02*
X108380951Y-85288152D01*
X108380951Y-85288152D02*
X108285713Y-85335771D01*
X108285713Y-85335771D02*
X108238094Y-85431009D01*
X108238094Y-85431009D02*
X108238094Y-85526247D01*
X108238094Y-85526247D02*
X108714284Y-85621485D01*
X107809522Y-85954819D02*
X107809522Y-85288152D01*
X107809522Y-85478628D02*
X107761903Y-85383390D01*
X107761903Y-85383390D02*
X107714284Y-85335771D01*
X107714284Y-85335771D02*
X107619046Y-85288152D01*
X107619046Y-85288152D02*
X107523808Y-85288152D01*
X106666665Y-85954819D02*
X107238093Y-85954819D01*
X106952379Y-85954819D02*
X106952379Y-84954819D01*
X106952379Y-84954819D02*
X107047617Y-85097676D01*
X107047617Y-85097676D02*
X107142855Y-85192914D01*
X107142855Y-85192914D02*
X107238093Y-85240533D01*
%TO.C,A1*%
D11*
X99970000Y-95510000D02*
X118010000Y-95510000D01*
X99970000Y-138950000D02*
X99970000Y-95510000D01*
X99970000Y-138950000D02*
X105050000Y-138950000D01*
X102640000Y-98180000D02*
X99970000Y-98180000D01*
X102640000Y-98180000D02*
X102640000Y-136280000D01*
X102640000Y-136280000D02*
X99970000Y-136280000D01*
X105050000Y-131070000D02*
X105050000Y-141490000D01*
X105050000Y-141490000D02*
X112930000Y-141490000D01*
X112930000Y-131070000D02*
X105050000Y-131070000D01*
X112930000Y-141490000D02*
X112930000Y-131070000D01*
X115340000Y-98180000D02*
X118010000Y-98180000D01*
X115340000Y-100720000D02*
X115340000Y-98180000D01*
X115340000Y-100720000D02*
X115340000Y-136280000D01*
X115340000Y-136280000D02*
X118010000Y-136280000D01*
X118010000Y-95510000D02*
X118010000Y-100950000D01*
X118010000Y-100720000D02*
X118010000Y-138950000D01*
X118010000Y-138950000D02*
X112930000Y-138950000D01*
%TO.C,Converter1*%
D12*
X97500000Y-84000000D02*
X120500000Y-84000000D01*
X97500000Y-95000000D02*
X97500000Y-84000000D01*
X120500000Y-84000000D02*
X120500000Y-95000000D01*
X120500000Y-95000000D02*
X97500000Y-95000000D01*
%TD*%
D13*
X96500000Y-50000000D02*
X96500000Y-143000000D01*
X96500000Y-50000000D02*
G75*
G02*
X100000000Y-46500000I3500000J0D01*
G01*
X100000000Y-46500000D02*
X118000000Y-46500000D01*
X100000000Y-146500000D02*
G75*
G02*
X96500000Y-143000000I0J3500000D01*
G01*
X100000000Y-146500000D02*
X118000000Y-146500000D01*
X108500000Y-56000000D02*
X108500000Y-79000000D01*
X108500000Y-79000000D02*
X121500000Y-79000000D01*
X118000000Y-46500000D02*
G75*
G02*
X121500000Y-50000000I0J-3500000D01*
G01*
X121500000Y-50000000D02*
X121500000Y-56000000D01*
X121500000Y-56000000D02*
X108500000Y-56000000D01*
X121500000Y-79000000D02*
X121500000Y-143000000D01*
X121500000Y-143000000D02*
G75*
G02*
X118000000Y-146500000I-3500000J0D01*
G01*
M02*
